# File created by Blade
# Date/Time:  Thu Jan 22 16:00:44 2015
# Frame Rate: 120.000 fps
#------------------------------------------------------
:FULLY-SPECIFIED
:DEGREES
724
root 2.236036 36.411374 -3.305517 46.248117 -1.322332 -0.223123
RightUpLeg -64.310645 1.338648 -3.610536
RightLeg 16.790482 -0.000000 -0.000000
RightFoot -6.940768 -16.978773 15.812241
RightToeBase 13.233309 -0.000000 -0.000000
LeftUpLeg -65.534741 1.699539 7.893786
LeftLeg 17.178563 -0.000000 -0.000000
LeftFoot -2.706947 16.803353 -20.170700
LeftToeBase 10.360302 -0.000000 -0.000000
Spine 82.023748 -3.116381 -9.341255
RightShoulder -17.989487 -61.472807 -24.036757
RightArm -17.035323 -3.616629 81.786500
RightForeArm 7.171186 0.000000 4.702378
RightHand -12.950092 -0.000000 45.098892
RightHandThumb1 -24.326973 -0.000000 -32.862282
LeftShoulder -95.452926 64.744985 -55.426437
LeftArm 7.368057 1.557594 -81.011211
LeftForeArm 36.144210 0.000000 -4.129470
LeftHand -14.426152 -0.000000 -53.323410
LeftHandThumb1 -26.253704 0.000000 33.147579
Head 4.439353 18.112617 -2.502952
725
root 2.244660 36.386233 -3.321408 46.691387 -1.355159 -0.314317
RightUpLeg -64.967635 1.449777 -3.718491
RightLeg 17.125768 -0.000000 -0.000000
RightFoot -7.072529 -16.984983 16.016270
RightToeBase 13.253864 -0.000000 -0.000000
LeftUpLeg -66.254575 1.784136 8.017608
LeftLeg 17.723020 -0.000000 -0.000000
LeftFoot -2.984768 16.794797 -20.281348
LeftToeBase 10.334215 -0.000000 -0.000000
Spine 82.093247 -3.031944 -9.327544
RightShoulder -17.827072 -61.490781 -24.213786
RightArm -16.986983 -3.632557 81.893761
RightForeArm 7.328446 -0.000000 4.705223
RightHand -12.986148 -0.000000 45.012550
RightHandThumb1 -24.326973 -0.000000 -32.862282
LeftShoulder -95.582819 64.729412 -55.584992
LeftArm 7.440778 1.557947 -81.052081
LeftForeArm 36.140976 -0.000000 -4.129205
LeftHand -14.373339 -0.000000 -53.340901
LeftHandThumb1 -26.253704 0.000000 33.147579
Head 4.312729 18.104327 -2.572083
726
root 2.259893 36.361120 -3.334028 47.154759 -1.410792 -0.375892
RightUpLeg -65.637113 1.505188 -3.776472
RightLeg 17.468211 -0.000000 -0.000000
RightFoot -7.208010 -16.988243 16.066178
RightToeBase 13.298931 -0.000000 -0.000000
LeftUpLeg -66.977617 1.850631 8.102679
LeftLeg 18.240656 -0.000000 -0.000000
LeftFoot -3.250871 16.815944 -20.362209
LeftToeBase 10.267997 -0.000000 -0.000000
Spine 82.146515 -2.930989 -9.280278
RightShoulder -17.769568 -61.453812 -24.242545
RightArm -17.005021 -3.563431 81.965535
RightForeArm 7.351572 -0.000000 4.698280
RightHand -12.987468 -0.000000 45.054334
RightHandThumb1 -24.326973 -0.000000 -32.862282
LeftShoulder -95.524423 64.765089 -55.507437
LeftArm 7.503199 1.564876 -81.123729
LeftForeArm 36.203828 -0.000000 -4.145186
LeftHand -14.418584 -0.000000 -53.274319
LeftHandThumb1 -26.253704 0.000000 33.147579
Head 4.183476 17.984721 -2.624822
727
root 2.276488 36.332978 -3.343174 47.562403 -1.442706 -0.438878
RightUpLeg -66.238412 1.538844 -3.798539
RightLeg 17.817021 -0.000000 -0.000000
RightFoot -7.374934 -16.977148 16.055354
RightToeBase 13.201737 -0.000000 -0.000000
LeftUpLeg -67.667958 1.901028 8.191297
LeftLeg 18.800688 -0.000000 -0.000000
LeftFoot -3.535716 16.833199 -20.413292
LeftToeBase 10.236908 -0.000000 -0.000000
Spine 82.267198 -2.905995 -9.269724
RightShoulder -17.667125 -61.457332 -24.435006
RightArm -16.936212 -3.438265 82.045347
RightForeArm 7.191113 -0.000000 4.688830
RightHand -12.939042 -0.000000 45.080526
RightHandThumb1 -24.326973 -0.000000 -32.862282
LeftShoulder -95.367053 64.768925 -55.390483
LeftArm 7.491504 1.616580 -81.180183
LeftForeArm 36.133691 -0.000000 -4.131898
LeftHand -14.404317 -0.000000 -53.327888
LeftHandThumb1 -26.253704 0.000000 33.147579
Head 4.112863 18.234631 -2.668959
728
root 2.294494 36.304322 -3.353309 47.993683 -1.476580 -0.508419
RightUpLeg -66.872514 1.570622 -3.817441
RightLeg 18.181880 -0.000000 -0.000000
RightFoot -7.549348 -16.941556 16.074950
RightToeBase 13.242380 -0.000000 -0.000000
LeftUpLeg -68.387265 1.974613 8.263791
LeftLeg 19.370583 -0.000000 -0.000000
LeftFoot -3.818332 16.813160 -20.483834
LeftToeBase 10.182821 -0.000000 -0.000000
Spine 82.370170 -2.852322 -9.222502
RightShoulder -17.703295 -61.415503 -24.439926
RightArm -16.905844 -3.378521 82.074622
RightForeArm 7.164261 -0.000000 4.687872
RightHand -12.904598 -0.000000 45.119615
RightHandThumb1 -24.326973 -0.000000 -32.862282
LeftShoulder -95.387041 64.751341 -55.423137
LeftArm 7.605450 1.680263 -81.222616
LeftForeArm 36.186507 -0.000000 -4.136202
LeftHand -14.372217 -0.000000 -53.299309
LeftHandThumb1 -26.253704 0.000000 33.147579
Head 3.978637 18.340603 -2.659405
729
root 2.314922 36.273602 -3.363408 48.434941 -1.499193 -0.584464
RightUpLeg -67.530406 1.588590 -3.803835
RightLeg 18.573254 -0.000000 -0.000000
RightFoot -7.748737 -16.908104 16.111812
RightToeBase 13.288339 -0.000000 -0.000000
LeftUpLeg -69.129681 2.016875 8.388012
LeftLeg 19.968820 -0.000000 -0.000000
LeftFoot -4.124861 16.843327 -20.564993
LeftToeBase 10.142406 -0.000000 -0.000000
Spine 82.427546 -2.849472 -9.242923
RightShoulder -17.433116 -61.358773 -24.738074
RightArm -16.923327 -3.410318 82.195277
RightForeArm 7.290845 -0.000000 4.712468
RightHand -12.911378 0.000000 45.124982
RightHandThumb1 -24.326973 -0.000000 -32.862282
LeftShoulder -95.325086 64.752397 -55.418954
LeftArm 7.581512 1.697190 -81.332865
LeftForeArm 36.238725 0.000000 -4.097127
LeftHand -14.426475 -0.000000 -53.307357
LeftHandThumb1 -26.253704 0.000000 33.147579
Head 3.959596 18.339687 -2.896576
730
root 2.337070 36.243443 -3.373316 48.865064 -1.526206 -0.634544
RightUpLeg -68.186186 1.604033 -3.843326
RightLeg 18.984530 -0.000000 -0.000000
RightFoot -7.941568 -16.888749 16.143676
RightToeBase 13.258629 -0.000000 -0.000000
LeftUpLeg -69.848152 2.056838 8.462447
LeftLeg 20.541921 -0.000000 -0.000000
LeftFoot -4.376617 16.839430 -20.567567
LeftToeBase 9.969699 -0.000000 -0.000000
Spine 82.498558 -2.821774 -9.218811
RightShoulder -17.378762 -61.316761 -24.821204
RightArm -16.921155 -3.486556 82.277488
RightForeArm 7.385906 -0.000000 4.729697
RightHand -12.899104 -0.000000 45.134506
RightHandThumb1 -24.326973 -0.000000 -32.862282
LeftShoulder -95.566591 64.762136 -55.651745
LeftArm 7.766300 1.725985 -81.423403
LeftForeArm 36.296380 -0.000000 -4.096242
LeftHand -14.533249 -0.000000 -53.301620
LeftHandThumb1 -26.253704 0.000000 33.147579
Head 3.922228 18.489841 -2.844333
731
root 2.355440 36.207569 -3.380085 49.266760 -1.540673 -0.704843
RightUpLeg -68.830315 1.575830 -3.694127
RightLeg 19.454503 -0.000000 -0.000000
RightFoot -8.136782 -16.884313 15.880644
RightToeBase 13.225438 -0.000000 -0.000000
LeftUpLeg -70.578007 2.201539 8.405333
LeftLeg 21.178318 -0.000000 -0.000000
LeftFoot -4.668937 16.678882 -20.616010
LeftToeBase 10.006293 -0.000000 -0.000000
Spine 82.586011 -2.799526 -9.231526
RightShoulder -17.224461 -61.304250 -24.975565
RightArm -16.887962 -3.566460 82.366372
RightForeArm 7.464054 0.000000 4.766900
RightHand -12.881500 -0.000000 45.156444
RightHandThumb1 -24.326973 -0.000000 -32.862282
LeftShoulder -95.528801 64.748958 -55.618182
LeftArm 7.772906 1.791361 -81.510313
LeftForeArm 36.333078 -0.000000 -4.116766
LeftHand -14.339870 -0.000000 -53.278115
LeftHandThumb1 -26.253704 0.000000 33.147579
Head 3.901000 18.422952 -3.019183
732
root 2.374179 36.170356 -3.391599 49.705871 -1.572148 -0.765384
RightUpLeg -69.551966 1.591397 -3.678477
RightLeg 19.965747 -0.000000 -0.000000
RightFoot -8.361587 -16.869236 15.829900
RightToeBase 13.191394 -0.000000 -0.000000
LeftUpLeg -71.337782 2.316874 8.397379
LeftLeg 21.804945 -0.000000 -0.000000
LeftFoot -4.966381 16.568054 -20.682585
LeftToeBase 9.968138 -0.000000 -0.000000
Spine 82.617641 -2.764114 -9.217576
RightShoulder -17.204845 -61.267220 -25.005574
RightArm -16.888923 -3.537839 82.379368
RightForeArm 7.550604 -0.000000 4.790086
RightHand -12.903970 -0.000000 45.190746
RightHandThumb1 -24.326973 -0.000000 -32.862282
LeftShoulder -95.257221 64.768098 -55.304173
LeftArm 7.698638 1.872403 -81.587577
LeftForeArm 36.304305 -0.000000 -4.127239
LeftHand -14.381441 0.000000 -53.224222
LeftHandThumb1 -26.253704 0.000000 33.147579
Head 3.908125 18.559076 -2.941781
733
root 2.390479 36.134018 -3.401542 50.124511 -1.575653 -0.832767
RightUpLeg -70.239930 1.647131 -3.762552
RightLeg 20.456478 -0.000000 -0.000000
RightFoot -8.598575 -16.878935 15.918665
RightToeBase 13.220856 -0.000000 -0.000000
LeftUpLeg -72.075034 2.422831 8.406090
LeftLeg 22.419457 -0.000000 -0.000000
LeftFoot -5.229396 16.461482 -20.698570
LeftToeBase 9.918735 -0.000000 -0.000000
Spine 82.651741 -2.747186 -9.196150
RightShoulder -17.120630 -61.307907 -25.117600
RightArm -16.794454 -3.462793 82.411772
RightForeArm 7.542692 -0.000000 4.767084
RightHand -12.933058 -0.000000 45.181593
RightHandThumb1 -24.326973 -0.000000 -32.862282
LeftShoulder -95.551765 64.793694 -55.620911
LeftArm 7.843112 1.854089 -81.687929
LeftForeArm 36.389165 0.000000 -4.115770
LeftHand -14.441592 -0.000000 -53.180272
LeftHandThumb1 -26.253704 0.000000 33.147579
Head 3.938583 18.505646 -3.030405
734
root 2.412919 36.094760 -3.414180 50.541307 -1.609067 -0.878556
RightUpLeg -70.955622 1.669836 -3.823724
RightLeg 20.987167 -0.000000 -0.000000
RightFoot -8.815930 -16.874977 15.923096
RightToeBase 13.159454 -0.000000 -0.000000
LeftUpLeg -72.828984 2.523072 8.370751
LeftLeg 23.063465 -0.000000 -0.000000
LeftFoot -5.504798 16.341290 -20.734689
LeftToeBase 9.865017 -0.000000 -0.000000
Spine 82.687180 -2.736493 -9.176421
RightShoulder -17.144022 -61.282148 -25.129617
RightArm -16.796794 -3.380185 82.403620
RightForeArm 7.426542 -0.000000 4.769383
RightHand -12.917868 -0.000000 45.280266
RightHandThumb1 -24.326973 -0.000000 -32.862282
LeftShoulder -95.365866 64.828391 -55.417634
LeftArm 7.788826 1.890185 -81.743191
LeftForeArm 36.477433 0.000000 -4.110122
LeftHand -14.362389 -0.000000 -53.172821
LeftHandThumb1 -26.253704 0.000000 33.147579
Head 3.929293 18.607488 -3.027753
735
root 2.433613 36.055690 -3.425216 50.956843 -1.597599 -0.922004
RightUpLeg -71.663072 1.676642 -3.889385
RightLeg 21.533496 -0.000000 -0.000000
RightFoot -9.094621 -16.872780 16.043681
RightToeBase 13.165520 -0.000000 -0.000000
LeftUpLeg -73.576973 2.585291 8.395016
LeftLeg 23.685680 -0.000000 -0.000000
LeftFoot -5.769521 16.247793 -20.784804
LeftToeBase 9.843449 -0.000000 -0.000000
Spine 82.706130 -2.782822 -9.173925
RightShoulder -17.005469 -61.291758 -25.319001
RightArm -16.759746 -3.310163 82.440317
RightForeArm 7.357604 -0.000000 4.747917
RightHand -12.843553 -0.000000 45.171532
RightHandThumb1 -24.326973 -0.000000 -32.862282
LeftShoulder -95.485910 64.850488 -55.566155
LeftArm 7.819273 1.918289 -81.815485
LeftForeArm 36.444420 -0.000000 -4.100206
LeftHand -14.399334 -0.000000 -53.181581
LeftHandThumb1 -26.253704 0.000000 33.147579
Head 3.976189 18.639746 -3.108825
736
root 2.455167 36.013733 -3.436719 51.363248 -1.602204 -0.952020
RightUpLeg -72.382717 1.637820 -3.893807
RightLeg 22.113427 -0.000000 -0.000000
RightFoot -9.366913 -16.776695 16.131075
RightToeBase 13.145372 -0.000000 -0.000000
LeftUpLeg -74.319201 2.628216 8.424461
LeftLeg 24.317420 -0.000000 -0.000000
LeftFoot -5.999237 16.188051 -20.743805
LeftToeBase 9.619504 -0.000000 -0.000000
Spine 82.727971 -2.806890 -9.158269
RightShoulder -16.954236 -61.313926 -25.388731
RightArm -16.736841 -3.265801 82.459901
RightForeArm 7.336683 -0.000000 4.752255
RightHand -12.862396 -0.000000 45.213902
RightHandThumb1 -24.326973 -0.000000 -32.862282
LeftShoulder -95.439089 64.881203 -55.549347
LeftArm 7.800412 1.944209 -81.856698
LeftForeArm 36.388924 0.000000 -4.108145
LeftHand -14.381971 -0.000000 -53.113027
LeftHandThumb1 -26.253704 0.000000 33.147579
Head 3.995918 18.705843 -3.118973
